<svg version="1.1" id="Layer_1" xmlns="http://www.w3.org/2000/svg" x="0" y="0" viewBox="0 0 26 21" xml:space="preserve"><style>.st0{fill:#5c3575}</style><path class="st0" d="M20.6 7.1H4.9c-.7 0-1.3-.7-1.3-1.5 0-.9.6-1.6 1.3-1.6h15.7c.7 0 1.3.7 1.3 1.5 0 .9-.6 1.6-1.3 1.6zM20.6 12H4.9c-.7 0-1.3-.7-1.3-1.5S4.2 9 4.9 9h15.7c.7 0 1.3.7 1.3 1.5s-.6 1.5-1.3 1.5zM20.6 17H4.9c-.7 0-1.3-.7-1.3-1.5S4.2 14 4.9 14h15.7c.7 0 1.3.7 1.3 1.5s-.6 1.5-1.3 1.5z"/><g><path d="M22.2 21H3.8C1.9 21 .3 19.4.3 17.5V3.6C.3 1.6 1.9 0 3.8 0h18.4c1.9 0 3.5 1.6 3.5 3.5v13.9c0 2-1.6 3.6-3.5 3.6zM3.8 1C2.4 1 1.2 2.1 1.2 3.6v13.9c0 1.4 1.2 2.6 2.6 2.6h18.4c1.4 0 2.6-1.2 2.6-2.6V3.6c0-1.4-1.2-2.6-2.6-2.6H3.8z" fill="#79578e"/></g></svg>