<svg version="1.1" id="Layer_1" xmlns="http://www.w3.org/2000/svg" x="0" y="0" viewBox="0 0 121 31" xml:space="preserve"><style>.st0{fill:#5c3575}</style><path class="st0" d="M91.5 10.5c-.2.7-.4 1.5-.7 2.2l-1.2 3.5h3.7l-1.2-3.5c-.2-.8-.4-1.5-.6-2.2zM48.5 10.5c-.2.7-.4 1.5-.7 2.2l-1.2 3.5h3.7l-1.2-3.5c-.3-.8-.5-1.5-.6-2.2zM58.5 10.2c-.8 0-1.3.1-1.6.1v4.5h1.6c1.7 0 2.8-.9 2.8-2.3.1-1.6-1.1-2.2-2.8-2.3z"/><path class="st0" d="M106.4.1H14.6C6.6.1.2 6.5.2 14.5v1.9c0 8 6.4 14.4 14.4 14.4h91.8c8 0 14.4-6.4 14.4-14.4v-1.9c0-7.9-6.4-14.4-14.4-14.4zm9.1 6.9c.1-.1.4-.1.5.1.7.9 1.3 2 1.6 3.1.1.2 0 .4-.2.4h-.1c-.1 0-.3-.1-.3-.2-.4-1-.9-2-1.6-2.9-.1-.1 0-.3.1-.5zm-12-4.6h3.4c.2 0 .3.2.3.3 0 .2-.2.3-.3.3h-3.4c-.2 0-.3-.2-.3-.3s.2-.3.3-.3zm-13.6 0h3.4c.2 0 .3.2.3.3s-.2.3-.3.3h-3.4c-.2 0-.3-.2-.3-.3s.1-.3.3-.3zm-6.8 0h3.4c.2 0 .3.2.3.3s-.2.3-.3.3h-3.4c-.2 0-.3-.2-.3-.3s.1-.3.3-.3zm-6.8 0h3.4c.2 0 .3.2.3.3s-.2.3-.3.3h-3.4c-.2 0-.3-.2-.3-.3s.1-.3.3-.3zm-6.9 0h3.4c.2 0 .3.2.3.3s-.1.4-.2.4h-3.4c-.2 0-.3-.2-.3-.3s.1-.4.2-.4zm-6.8 0H66c.2 0 .3.2.3.3s-.1.4-.3.4h-3.4c-.2 0-.3-.2-.3-.3s.1-.4.3-.4zm-6.8 0h3.4c.2 0 .3.2.3.3s-.2.3-.3.3h-3.4c-.2 0-.3-.2-.3-.3s.1-.3.3-.3zm-6.8 0h3.4c.2 0 .3.2.3.3s-.2.3-.3.3H49c-.2 0-.3-.2-.3-.3s.1-.3.3-.3zm-6.8 0h3.4c.2 0 .3.2.3.3s-.2.3-.3.3h-3.4c-.2 0-.3-.2-.3-.3s.1-.3.3-.3zm.4 17.6v1.3h-6.8V9.1h1.6V20h5.2zM35.4 2.4h3.4c.2 0 .3.2.3.3s-.1.4-.3.4h-3.4c-.2 0-.3-.2-.3-.3s.1-.4.3-.4zm-6.9 0h3.4c.2 0 .3.2.3.3s-.2.3-.3.3h-3.4c-.2 0-.3-.2-.3-.3s.1-.3.3-.3zm-6.8 0h3.4c.2 0 .3.2.3.3s-.2.3-.3.3h-3.4c-.2 0-.3-.2-.3-.3s.1-.3.3-.3zM8.3 4.5c1-.7 2-1.2 3.1-1.5.2-.1.4 0 .4.2.1.2 0 .4-.2.4-1.1.3-2 .8-3 1.4-.1 0-.1.1-.2.1 0 0-.1 0-.2-.1-.1-.2-.1-.4.1-.5zM3.6 17.1c-.2 0-.3-.1-.4-.3V14.1v-.7c0-.2.2-.3.4-.3.2-.1.4.1.4.3v3.4c0 .1-.2.3-.4.3zM6 23.4c-.1 0-.1.1-.2.1s-.2 0-.3-.1c-.7-.9-1.3-2-1.6-3.1-.1-.2 0-.4.2-.4.2-.1.4 0 .4.2.4 1 .9 2 1.5 2.9.2.1.2.3 0 .4zm.3-16.1c-.7.9-1.2 1.8-1.6 2.9-.1.1-.2.2-.3.2h-.1c-.3-.1-.3-.3-.3-.5.4-1.1 1-2.1 1.7-3 .1-.1.3-.2.5-.1s.2.4.1.5zm5 20.1h-.1C10 27 9 26.5 8 25.8c-.2-.1-.2-.3-.1-.5s.3-.2.5-.1c.9.7 1.9 1.2 2.9 1.5.2.1.3.3.2.4 0 .2-.1.3-.2.3zM9.8 15.5c0-2.2 1.8-4 4-4s4 1.8 4 4-1.8 4-4 4-4-1.8-4-4zM18 28h-3.4c-.2 0-.3-.2-.3-.3 0-.2.1-.3.3-.3H18c.2 0 .3.2.3.3 0 .2-.1.3-.3.3zm.3-24.9h-3.4c-.2 0-.4-.2-.4-.3 0-.2.1-.3.3-.3v.3-.3h3.4c.2 0 .3.2.3.3s0 .3-.2.3zM24.8 28h-3.4c-.2 0-.3-.2-.3-.3 0-.2.2-.3.3-.3h3.4c.2 0 .3.2.3.3.1.2-.1.3-.3.3zm6.8 0h-3.4c-.2 0-.3-.2-.3-.3 0-.2.2-.3.3-.3h3.4c.2 0 .3.2.3.3.1.2-.1.3-.3.3zm-.7-7.8c1 0 1.9-.2 2.6-.5l.3 1.3c-.6.3-1.7.6-3.2.6-3.4 0-6-2.2-6-6.2 0-3.8 2.6-6.4 6.4-6.4 1.5 0 2.5.3 2.9.5l-.4 1.3c-.6-.3-1.5-.5-2.5-.5-2.9 0-4.8 1.8-4.8 5 0 3 1.7 4.9 4.7 4.9zm7.6 7.8H35c-.2 0-.3-.2-.3-.3 0-.2.2-.3.3-.3h3.4c.2 0 .3.2.3.3.1.2-.1.3-.2.3zm6.8 0h-3.4c-.2 0-.3-.2-.3-.3 0-.2.2-.3.3-.3h3.4c.2 0 .3.2.3.3 0 .2-.1.3-.3.3zm6.8 0h-3.4c-.2 0-.3-.2-.3-.3 0-.2.2-.3.3-.3h3.4c.2 0 .3.2.3.3 0 .2-.1.3-.3.3zm-.2-6.7l-1.3-3.8h-4.3L45 21.3h-1.6l4.2-12.2h1.9l4.2 12.2h-1.8zm7 6.7h-3.4c-.2 0-.3-.2-.3-.3 0-.2.2-.3.3-.3h3.4c.2 0 .3.2.3.3.1.2-.1.3-.3.3zm2-9.6c-.4-1.7-1-2.3-2.4-2.4H57v5.3h-1.6v-12c.8-.2 1.9-.3 3-.3 1.7 0 2.8.3 3.5 1 .6.5 1 1.4 1 2.3 0 1.6-1 2.7-2.3 3.1v.1c.9.3 1.5 1.2 1.8 2.5.4 1.7.7 2.9.9 3.4h-1.6c-.2-.4-.4-1.5-.8-3zm4.8 9.6h-3.4c-.2 0-.3-.2-.3-.3 0-.2.2-.3.3-.3h3.4c.2 0 .3.2.3.3.1.2-.1.3-.3.3zm1-6.7h-1.6V9.1h1.6v12.2zm5.9 6.7h-3.4c-.2 0-.3-.2-.3-.3 0-.2.2-.3.3-.3h3.4c.2 0 .3.2.3.3 0 .2-.2.3-.3.3zm-.6-6.5c-1.2 0-2.5-.3-3.1-.8l.4-1.3c.7.4 1.7.8 2.8.8 1.6 0 2.6-.9 2.6-2.1 0-1.1-.7-1.8-2.3-2.4-2-.7-3.2-1.7-3.2-3.5 0-1.9 1.6-3.3 4-3.3 1.3 0 2.2.3 2.7.6l-.4 1.3c-.4-.2-1.2-.6-2.3-.6-1.7 0-2.3 1-2.3 1.8 0 1.1.7 1.7 2.4 2.4 2.1.8 3.1 1.8 3.1 3.6-.1 1.9-1.5 3.5-4.4 3.5zm7.4 6.5H76c-.2 0-.3-.2-.3-.3 0-.2.2-.3.3-.3h3.4c.2 0 .3.2.3.3 0 .2-.1.3-.3.3zm-1.6-7.3l.4-1.3c.7.4 1.7.8 2.8.8 1.6 0 2.6-.9 2.6-2.1 0-1.1-.7-1.8-2.3-2.4-2-.7-3.2-1.7-3.2-3.5 0-1.9 1.6-3.3 4-3.3 1.3 0 2.2.3 2.7.6l-.4 1.3c-.4-.2-1.2-.6-2.3-.6-1.7 0-2.3 1-2.3 1.8 0 1.1.7 1.7 2.4 2.4 2.1.8 3.1 1.8 3.1 3.6 0 1.9-1.4 3.5-4.3 3.5-1.3 0-2.5-.3-3.2-.8zm8.4 7.3h-3.4c-.2 0-.3-.2-.3-.3 0-.2.2-.3.3-.3h3.4c.2 0 .3.2.3.3 0 .2-.1.3-.3.3zm6.8 0h-3.4c-.2 0-.3-.2-.3-.3 0-.2.2-.3.3-.3H93c.2 0 .3.2.3.3 0 .2-.1.3-.3.3zm.7-10.5h-4.3l-1.3 3.8h-1.6l4.2-12.2h1.9l4.2 12.2H95l-1.3-3.8zM99.8 28h-3.4c-.2 0-.3-.2-.3-.3 0-.2.2-.3.3-.3h3.4c.2 0 .3.2.3.3.1.2-.1.3-.3.3zm.3-24.9h-3.4c-.2 0-.3-.2-.3-.3s.2-.3.3-.3h3.4c.2 0 .3.2.3.3s-.1.3-.3.3zm6.6 24.9h-3.5c-.2 0-.3-.2-.3-.3 0-.2.2-.3.3-.3h3.4c.2 0 .4.2.4.3 0 .2-.1.3-.3.3zm-2.9-12.8c0-2.2 1.8-4 4-4s4 1.8 4 4-1.8 4-4 4-4-1.8-4-4zm9.5 10.7c-1 .7-2 1.2-3.1 1.5h-.1c-.1 0-.3-.1-.3-.2-.1-.2 0-.4.2-.4 1.1-.3 2-.8 3-1.4.2-.1.4-.1.5.1 0 .1-.1.3-.2.4zm.3-20.8c-.1.1-.2.1-.3.1-.1 0-.1 0-.2-.1-.9-.7-1.9-1.2-2.9-1.5-.2-.1-.3-.3-.2-.4.1-.2.3-.3.4-.2 1.1.4 2.2.9 3.1 1.6.2.2.2.4.1.5zm2.2 18.4c-.1.1-.2.1-.3.1-.1 0-.1 0-.2-.1s-.2-.3-.1-.5c.7-.9 1.2-1.8 1.6-2.9.1-.2.3-.3.4-.2.2.1.3.3.2.4-.3 1.3-.8 2.3-1.6 3.2zm2.5-7.2v.7c0 .2-.2.3-.3.3-.2 0-.3-.2-.3-.4v-3-.4c0-.2.1-.3.3-.4.2 0 .3.1.4.3v2.9z"/></svg>